<svg xmlns="http://www.w3.org/2000/svg" xmlns:xlink="http://www.w3.org/1999/xlink" version="1.1" width="256" height="256" viewBox="0 0 256 256" xml:space="preserve">
<g style="stroke: none; stroke-width: 0; stroke-dasharray: none; stroke-linecap: butt; stroke-linejoin: miter; stroke-miterlimit: 10; fill: none; fill-rule: nonzero; opacity: 1;" transform="translate(1.4065934065934016 1.4065934065934016) scale(2.81 2.81)">
	<path d="M 62.388 36.562 v -0.007 c -2.927 -9.841 -7.573 -18.32 -13.938 -25.436 l -6.896 -0.005 c -6.367 7.117 -11.015 15.598 -13.942 25.441 v 0.007 C 20.75 30.762 11.742 26.46 1 23.368 C 8.412 43.272 12.7 64.5 13.14 87.361 H 76.86 C 77.3 64.5 81.588 43.272 89 23.368 C 78.258 26.46 69.25 30.762 62.388 36.562 z" style="stroke: none; stroke-width: 1; stroke-dasharray: none; stroke-linecap: butt; stroke-linejoin: miter; stroke-miterlimit: 10; fill: rgb(255,249,68); fill-rule: nonzero; opacity: 1;" transform=" matrix(1 0 0 1 0 0) " stroke-linecap="round"/>
	<circle cx="45.005" cy="7.555" r="4.915" style="stroke: none; stroke-width: 1; stroke-dasharray: none; stroke-linecap: butt; stroke-linejoin: miter; stroke-miterlimit: 10; fill: rgb(255,249,68); fill-rule: nonzero; opacity: 1;" transform="  matrix(1 0 0 1 0 0) "/>
	<path d="M 38.368 68.486 c 1.309 4.402 3.52 8.089 6.632 11.062 c 3.112 -2.973 5.323 -6.66 6.632 -11.062 h 0 c -1.309 -4.402 -3.52 -8.089 -6.632 -11.062 C 41.888 60.397 39.677 64.085 38.368 68.486 L 38.368 68.486 z" style="stroke: none; stroke-width: 1; stroke-dasharray: none; stroke-linecap: butt; stroke-linejoin: miter; stroke-miterlimit: 10; fill: rgb(126,135,255); fill-rule: nonzero; opacity: 1;" transform=" matrix(1 0 0 1 0 0) " stroke-linecap="round"/>
	<path d="M 89.733 22.688 c -0.258 -0.277 -0.65 -0.385 -1.01 -0.281 c -10.733 3.09 -19.265 7.198 -25.839 12.441 c -2.889 -9.058 -7.303 -17.043 -13.152 -23.76 c 0.739 -0.987 1.183 -2.208 1.183 -3.534 c 0 -3.262 -2.653 -5.916 -5.915 -5.916 s -5.916 2.654 -5.916 5.916 c 0 1.326 0.444 2.547 1.183 3.534 c -5.849 6.718 -10.264 14.702 -13.152 23.759 c -6.574 -5.244 -15.106 -9.352 -25.839 -12.442 c -0.363 -0.104 -0.753 0.004 -1.01 0.281 s -0.335 0.675 -0.204 1.029 C 7.656 44.108 11.72 65.527 12.14 87.38 c 0.011 0.544 0.455 0.98 1 0.98 H 76.86 c 0.545 0 0.989 -0.437 1 -0.98 c 0.42 -21.853 4.483 -43.271 12.077 -63.663 C 90.069 23.363 89.99 22.965 89.733 22.688 z M 45 3.639 c 2.159 0 3.915 1.756 3.915 3.916 S 47.159 11.47 45 11.47 s -3.916 -1.756 -3.916 -3.916 S 42.841 3.639 45 3.639 z M 75.882 86.36 H 14.118 c -0.137 -5.658 -0.524 -11.285 -1.142 -16.874 h 24.669 c 1.379 4.238 3.611 7.869 6.664 10.785 c 0.193 0.185 0.442 0.276 0.691 0.276 s 0.498 -0.092 0.691 -0.276 c 3.053 -2.917 5.285 -6.547 6.664 -10.785 h 24.669 C 76.406 75.075 76.019 80.703 75.882 86.36 z M 39.413 68.486 c 1.161 -3.757 3.038 -6.997 5.587 -9.649 c 2.55 2.652 4.426 5.893 5.587 9.649 c -1.161 3.757 -3.037 6.997 -5.587 9.649 C 42.451 75.483 40.574 72.243 39.413 68.486 z M 77.254 67.486 H 52.355 c -1.379 -4.238 -3.611 -7.869 -6.664 -10.785 c -0.387 -0.369 -0.995 -0.369 -1.382 0 c -3.053 2.917 -5.285 6.547 -6.664 10.785 H 12.746 c -1.761 -14.532 -5.142 -28.79 -10.122 -42.592 c 10.165 3.121 18.196 7.209 24.314 12.387 c 0.029 0.027 0.058 0.05 0.09 0.074 c 2.071 1.762 3.924 3.649 5.562 5.667 c 0.348 0.43 0.979 0.495 1.406 0.146 c 0.429 -0.348 0.495 -0.978 0.146 -1.406 c -1.596 -1.966 -3.391 -3.806 -5.374 -5.535 c 2.788 -9.086 7.141 -17.068 12.946 -23.756 c 0.94 0.63 2.07 0.999 3.284 0.999 c 1.214 0 2.344 -0.369 3.284 -0.999 c 5.804 6.687 10.158 14.669 12.946 23.756 c -1.982 1.729 -3.778 3.569 -5.373 5.535 c -0.349 0.429 -0.282 1.059 0.146 1.406 c 0.431 0.348 1.06 0.282 1.406 -0.146 c 1.638 -2.019 3.49 -3.905 5.561 -5.667 c 0.033 -0.024 0.062 -0.048 0.092 -0.075 c 6.118 -5.177 14.149 -9.266 24.313 -12.386 C 82.395 38.696 79.014 52.954 77.254 67.486 z" style="stroke: none; stroke-width: 1; stroke-dasharray: none; stroke-linecap: butt; stroke-linejoin: miter; stroke-miterlimit: 10; fill: rgb(0,0,0); fill-rule: nonzero; opacity: 1;" transform=" matrix(1 0 0 1 0 0) " stroke-linecap="round"/>
</g>
</svg>